<?xml version="1.0" encoding="UTF-8"?>
<svg xmlns="http://www.w3.org/2000/svg" xmlns:xlink="http://www.w3.org/1999/xlink" width="47px" height="56px" viewBox="0 0 47 55" version="1.1">
<g id="surface1">
<path style=" stroke:none;fill-rule:nonzero;fill:rgb(0%,0%,0%);fill-opacity:1;" d="M 14.230469 2.164062 C 7.515625 3.808594 5.101562 5.613281 3.984375 9.851562 C 3.734375 10.730469 3.4375 14.5625 3.074219 21.753906 C 2.753906 27.566406 2.390625 32.910156 2.253906 33.585938 C 1.84375 35.613281 2.070312 38.65625 2.753906 40.121094 C 3.597656 41.925781 4.394531 42.738281 6.832031 44.292969 C 8.0625 45.082031 9.152344 45.984375 9.382812 46.367188 L 9.769531 47.042969 L 8.859375 47.921875 C 8.355469 48.394531 7.789062 49.070312 7.605469 49.410156 C 6.488281 51.527344 8.335938 53.378906 11.042969 52.8125 C 11.75 52.65625 11.976562 52.496094 12.023438 52.09375 C 12.070312 51.800781 12 51.460938 11.863281 51.324219 C 11.273438 50.738281 11.589844 49.816406 12.957031 48.371094 C 14.550781 46.683594 15.027344 45.847656 15.027344 44.742188 C 15.027344 43.617188 14.753906 43.1875 12.910156 41.316406 L 11.316406 39.695312 L 12.59375 38.320312 C 13.320312 37.554688 13.890625 36.878906 13.890625 36.785156 C 13.914062 36.289062 14.300781 36.042969 14.710938 36.269531 C 14.960938 36.402344 15.417969 36.605469 15.734375 36.71875 C 16.234375 36.898438 16.371094 37.125 16.507812 38.003906 C 16.757812 39.761719 17.488281 41.386719 18.308594 42.105469 C 18.742188 42.46875 19.152344 43.007812 19.242188 43.300781 C 19.332031 43.59375 19.628906 44.066406 19.878906 44.339844 C 20.265625 44.765625 20.3125 44.96875 20.128906 45.691406 C 20.015625 46.164062 19.925781 47.96875 19.925781 49.703125 L 19.925781 52.859375 L 22.886719 52.859375 L 24.070312 51.054688 C 24.730469 50.0625 25.367188 49.230469 25.503906 49.183594 C 25.753906 49.09375 28.714844 50.019531 28.988281 50.265625 C 29.101562 50.355469 29.285156 50.875 29.398438 51.414062 C 29.714844 52.835938 29.921875 52.972656 31.539062 52.972656 C 32.996094 52.972656 33.359375 52.789062 33.519531 51.957031 C 33.566406 51.640625 33.792969 51.507812 34.179688 51.484375 C 35.363281 51.4375 35.363281 51.4375 35.226562 46.570312 C 35.089844 41.589844 34.453125 36.898438 33.703125 35.210938 C 33.109375 33.902344 33.132812 33.8125 33.882812 33.8125 C 34.25 33.8125 35.023438 33.675781 35.589844 33.496094 L 36.640625 33.179688 L 36.777344 34.238281 C 37.09375 36.832031 37.59375 37.058594 39.371094 35.480469 C 41.421875 33.652344 43.449219 30.429688 44.265625 27.726562 C 45.132812 24.839844 44.929688 19.722656 43.789062 16.117188 C 43.175781 14.222656 42.148438 12.015625 40.828125 9.851562 C 40.007812 8.519531 39.554688 8.316406 38.371094 8.769531 C 38.027344 8.902344 37.730469 8.789062 37.164062 8.316406 C 34.792969 6.265625 28.851562 4.890625 24.09375 5.273438 L 22.339844 5.410156 L 21.972656 4.734375 C 21.585938 3.988281 20.402344 3.15625 19.742188 3.15625 C 19.515625 3.15625 19.035156 2.929688 18.648438 2.660156 C 18.101562 2.253906 17.625 2.140625 16.328125 2.097656 C 15.417969 2.074219 14.484375 2.117188 14.230469 2.164062 Z M 20.835938 4.621094 C 21.746094 5.523438 21.382812 6.0625 20.359375 5.296875 C 19.832031 4.914062 18.605469 4.867188 17.921875 5.207031 C 17.648438 5.34375 17.191406 5.726562 16.894531 6.039062 L 16.394531 6.648438 L 16.644531 5.90625 C 17.238281 4.191406 19.652344 3.425781 20.835938 4.621094 Z M 14.800781 7.011719 C 12.683594 7.28125 11.703125 8.949219 12.683594 10.617188 C 13.003906 11.136719 13.023438 11.316406 12.796875 11.539062 C 12.34375 11.992188 11.589844 11.046875 11.453125 9.871094 C 11.226562 7.910156 13.140625 6.378906 15.371094 6.738281 C 15.941406 6.828125 15.824219 6.875 14.800781 7.011719 Z M 18.21875 7.078125 C 18.21875 7.121094 17.875 7.371094 17.488281 7.617188 C 17.078125 7.867188 16.28125 8.40625 15.734375 8.8125 L 14.710938 9.578125 L 15.164062 8.835938 C 15.394531 8.429688 15.847656 7.933594 16.144531 7.730469 C 16.851562 7.28125 18.21875 6.851562 18.21875 7.078125 Z M 7.515625 9.691406 C 7.96875 10.550781 7.105469 11.992188 6.46875 11.472656 C 6.035156 11.136719 6.058594 10.03125 6.511719 9.601562 C 6.992188 9.128906 7.21875 9.152344 7.515625 9.691406 Z M 8.996094 10.59375 C 9.152344 10.863281 8.722656 11.722656 8.425781 11.722656 C 8.175781 11.722656 8.105469 10.753906 8.355469 10.527344 C 8.5625 10.300781 8.835938 10.324219 8.996094 10.59375 Z M 16.054688 11.742188 C 16.257812 12.375 15.757812 13.117188 15.1875 13.027344 C 14.847656 12.984375 14.664062 12.78125 14.621094 12.375 C 14.484375 11.246094 15.734375 10.707031 16.054688 11.742188 Z M 17.535156 12.511719 C 17.535156 12.847656 17.398438 13.074219 17.214844 13.074219 C 16.78125 13.074219 16.578125 12.757812 16.757812 12.308594 C 16.988281 11.742188 17.535156 11.878906 17.535156 12.511719 Z M 20.359375 12.53125 C 20.539062 13.007812 20.335938 13.300781 19.8125 13.300781 C 19.582031 13.300781 19.332031 13.210938 19.265625 13.097656 C 19.035156 12.734375 19.378906 12.171875 19.8125 12.171875 C 20.039062 12.171875 20.289062 12.328125 20.359375 12.53125 Z M 40.714844 13.34375 C 41.101562 13.726562 41.058594 15.011719 40.625 15.417969 C 40.214844 15.847656 40.167969 15.847656 39.597656 15.554688 C 39.28125 15.371094 39.167969 15.078125 39.167969 14.472656 C 39.167969 13.570312 39.484375 13.074219 40.078125 13.074219 C 40.28125 13.074219 40.554688 13.1875 40.714844 13.34375 Z M 23.339844 13.863281 C 23.339844 14.109375 23.160156 14.335938 22.953125 14.382812 C 22.632812 14.449219 22.542969 14.3125 22.542969 13.863281 C 22.542969 13.410156 22.632812 13.277344 22.953125 13.34375 C 23.160156 13.390625 23.339844 13.613281 23.339844 13.863281 Z M 26.074219 13.976562 C 26.253906 14.5625 25.824219 15.328125 25.253906 15.328125 C 24.683594 15.328125 24.457031 14.765625 24.773438 14.066406 C 25.09375 13.410156 25.867188 13.34375 26.074219 13.976562 Z M 34.089844 17.242188 C 34.65625 17.988281 35.296875 18.957031 35.546875 19.429688 L 35.980469 20.265625 L 35.023438 20.535156 C 33.609375 20.894531 32.335938 21.4375 32.335938 21.660156 C 32.335938 21.753906 32.675781 21.707031 33.085938 21.550781 C 33.472656 21.367188 34.339844 21.074219 35 20.894531 L 36.183594 20.535156 L 36.660156 21.820312 C 36.933594 22.519531 37.207031 23.375 37.277344 23.714844 L 37.414062 24.34375 L 35.84375 24.367188 C 34.976562 24.367188 33.859375 24.503906 33.359375 24.660156 L 32.449219 24.929688 L 32.515625 26.371094 C 32.652344 29.011719 33.246094 29.980469 34.726562 29.980469 C 36.207031 29.980469 36.890625 28.828125 36.890625 26.304688 C 36.890625 25.359375 36.980469 25.019531 37.207031 25.019531 C 37.390625 25.019531 37.59375 25.289062 37.664062 25.605469 C 37.867188 26.394531 38.347656 26.171875 38.484375 25.222656 L 38.621094 24.457031 L 38.78125 25.492188 C 38.917969 26.328125 38.871094 26.6875 38.507812 27.296875 C 38.253906 27.726562 38.003906 28.671875 37.914062 29.414062 C 37.640625 31.894531 37.320312 32.277344 35.023438 32.910156 C 34.25 33.113281 32.746094 33.15625 29.671875 33.066406 C 25.753906 32.976562 25.140625 32.910156 22.429688 32.210938 L 19.46875 31.445312 L 19.332031 30.65625 C 19.265625 30.226562 19.152344 29.753906 19.105469 29.617188 C 19.015625 29.347656 20.496094 27.050781 20.789062 27.050781 C 20.882812 27.050781 20.949219 27.363281 20.949219 27.746094 C 20.949219 29.101562 21.746094 29.957031 23.023438 29.980469 C 24.273438 29.980469 24.890625 29.191406 25.09375 27.320312 C 25.183594 26.484375 25.277344 25.605469 25.320312 25.359375 C 25.390625 24.976562 25.183594 24.863281 24.070312 24.570312 C 23.339844 24.390625 22.816406 24.140625 22.863281 24.007812 C 22.929688 23.894531 23.160156 23.195312 23.363281 22.472656 C 23.589844 21.773438 23.820312 21.1875 23.910156 21.1875 C 24 21.1875 24.5 21.347656 25.027344 21.527344 C 25.527344 21.707031 25.960938 21.753906 25.960938 21.640625 C 25.960938 21.550781 25.457031 21.277344 24.820312 21.074219 C 24.113281 20.851562 23.660156 20.558594 23.566406 20.265625 C 23.5 20.039062 23.410156 19.65625 23.339844 19.40625 C 23.179688 18.890625 25.730469 17.085938 29.035156 15.394531 L 31.3125 14.222656 L 32.175781 15.058594 C 32.652344 15.507812 33.519531 16.5 34.089844 17.242188 Z M 37.300781 14.71875 C 37.390625 15.171875 36.730469 15.484375 36.386719 15.148438 C 36.046875 14.808594 36.367188 14.15625 36.820312 14.246094 C 37.050781 14.289062 37.253906 14.492188 37.300781 14.71875 Z M 19.605469 16.929688 C 20.902344 17.242188 22.292969 18.394531 22.816406 19.542969 C 23.683594 21.480469 23.023438 23.328125 20.175781 26.867188 L 18.625 28.808594 L 17.828125 28.355469 C 17.261719 28.019531 16.828125 27.929688 16.121094 28.019531 L 15.210938 28.132812 L 15.324219 27.34375 C 15.507812 26.328125 15.667969 26.171875 16.054688 26.6875 C 16.464844 27.230469 16.667969 27.070312 17.535156 25.515625 C 18.332031 24.140625 19.402344 22.699219 20.675781 21.367188 C 21.746094 20.242188 21.5625 19.925781 19.902344 20.039062 L 18.558594 20.128906 L 19.5625 20.332031 L 20.5625 20.558594 L 19.628906 21.480469 C 19.128906 22 18.398438 22.878906 17.988281 23.441406 L 17.238281 24.457031 L 17.398438 22.878906 C 17.488281 22.023438 17.808594 20.601562 18.125 19.722656 C 18.832031 17.761719 18.855469 17.535156 18.492188 17.425781 C 18.238281 17.335938 17.945312 17.851562 17.285156 19.566406 C 17.078125 20.0625 17.078125 20.0625 16.214844 19.203125 C 14.871094 17.875 13.140625 17.515625 11.019531 18.144531 C 10.40625 18.324219 9.882812 18.484375 9.859375 18.484375 C 9.699219 18.484375 9.8125 17.671875 9.996094 17.378906 C 10.40625 16.769531 12.5 16.476562 15.710938 16.589844 C 17.398438 16.65625 19.152344 16.816406 19.605469 16.929688 Z M 8.925781 18.484375 C 8.878906 18.84375 8.746094 19.160156 8.628906 19.160156 C 8.355469 19.160156 8.378906 18.777344 8.652344 18.234375 C 8.996094 17.648438 9.039062 17.695312 8.925781 18.484375 Z M 22.703125 25.382812 C 22.886719 25.855469 22.179688 26.554688 21.835938 26.214844 C 21.65625 26.035156 21.679688 25.832031 21.90625 25.492188 C 22.246094 24.929688 22.5 24.886719 22.703125 25.382812 Z M 34.339844 25.765625 C 34.40625 26.238281 34.316406 26.371094 33.976562 26.371094 C 33.472656 26.371094 33.199219 25.878906 33.40625 25.359375 C 33.609375 24.796875 34.269531 25.066406 34.339844 25.765625 Z M 16.394531 25.605469 C 16.394531 25.785156 16.28125 25.878906 16.167969 25.808594 C 16.03125 25.71875 15.984375 25.5625 16.054688 25.449219 C 16.257812 25.132812 16.394531 25.199219 16.394531 25.605469 Z M 14.753906 27.433594 C 14.484375 28.671875 13.914062 29.484375 13.617188 29.03125 C 13.230469 28.402344 13.433594 27.546875 14.140625 26.960938 C 14.527344 26.644531 14.871094 26.371094 14.914062 26.371094 C 14.9375 26.371094 14.871094 26.847656 14.753906 27.433594 Z M 13.140625 28.085938 C 13.070312 28.152344 13.140625 28.648438 13.296875 29.144531 C 13.433594 29.664062 13.503906 30.386719 13.433594 30.769531 L 13.296875 31.445312 L 12.910156 30.722656 C 12.363281 29.730469 12.457031 27.949219 13.046875 27.949219 C 13.183594 27.949219 13.230469 28.019531 13.140625 28.085938 Z M 17.421875 28.71875 C 18.171875 29.03125 18.898438 30.046875 18.898438 30.769531 C 18.898438 31.21875 18.605469 31.195312 18.125 30.679688 C 17.761719 30.273438 17.714844 30.273438 16.894531 30.679688 C 16.441406 30.925781 15.824219 31.105469 15.554688 31.105469 C 15.050781 31.105469 14.117188 30.386719 14.117188 30.023438 C 14.140625 29.484375 15.621094 28.402344 16.351562 28.402344 C 16.507812 28.402344 16.988281 28.535156 17.421875 28.71875 Z M 18.21875 31.558594 L 18.785156 32.007812 L 18.035156 32.683594 C 17.488281 33.179688 17.078125 33.359375 16.441406 33.359375 C 15.371094 33.359375 15.300781 33.316406 15.4375 32.503906 C 15.507812 32.007812 15.710938 31.804688 16.464844 31.511719 C 16.988281 31.308594 17.464844 31.152344 17.535156 31.128906 C 17.601562 31.128906 17.898438 31.308594 18.21875 31.558594 Z M 14.800781 32.210938 C 14.777344 32.773438 14.777344 32.773438 14.460938 32.367188 C 14.027344 31.78125 14.027344 31.308594 14.460938 31.46875 C 14.640625 31.558594 14.800781 31.871094 14.800781 32.210938 Z M 20.5625 32.480469 C 21.40625 32.707031 21.609375 32.976562 21.15625 33.269531 C 21.019531 33.339844 20.789062 33.699219 20.652344 34.015625 L 20.378906 34.621094 L 19.171875 34.082031 L 17.988281 33.5625 L 18.605469 32.886719 C 19.308594 32.144531 19.355469 32.144531 20.5625 32.480469 Z M 27.371094 34.308594 C 27.941406 34.691406 29.375 36.515625 29.375 36.832031 C 29.375 36.898438 29.171875 36.96875 28.917969 36.96875 C 28.667969 36.96875 28.464844 37.058594 28.464844 37.191406 C 28.464844 37.304688 28.054688 37.261719 27.554688 37.078125 C 27.03125 36.898438 26.117188 36.695312 25.503906 36.605469 C 24.867188 36.515625 24.367188 36.402344 24.367188 36.3125 C 24.367188 36.246094 24.730469 35.929688 25.164062 35.636719 C 25.980469 35.097656 25.980469 35.007812 25.550781 33.855469 C 25.414062 33.449219 26.550781 33.742188 27.371094 34.308594 Z M 18.511719 34.53125 C 18.921875 34.734375 18.921875 34.78125 18.398438 35.320312 C 17.558594 36.222656 17.167969 36.335938 16.167969 36.042969 C 15.164062 35.75 15.074219 35.59375 15.597656 35.164062 C 15.871094 34.9375 16.144531 34.914062 16.738281 35.117188 C 17.167969 35.230469 17.535156 35.253906 17.535156 35.140625 C 17.535156 35.050781 17.125 34.847656 16.625 34.714844 C 16.097656 34.578125 15.757812 34.375 15.847656 34.238281 C 16.007812 33.992188 17.851562 34.195312 18.511719 34.53125 Z M 32.90625 35.210938 C 33.746094 36.96875 33.816406 36.878906 31.332031 37.238281 C 30.71875 37.328125 30.148438 35.546875 30.492188 34.644531 C 30.695312 34.148438 30.855469 34.035156 31.539062 34.035156 C 32.3125 34.035156 32.402344 34.128906 32.90625 35.210938 Z M 22.363281 36.335938 C 22.519531 36.179688 22.75 36.066406 22.90625 36.066406 C 23.25 36.066406 22.976562 37.328125 22.40625 38.433594 C 21.929688 39.289062 20.222656 41.496094 20.105469 41.386719 C 20.0625 41.339844 20.128906 40.617188 20.289062 39.761719 C 20.449219 38.703125 20.472656 37.824219 20.3125 37.011719 C 20.0625 35.660156 20.242188 35.523438 20.859375 36.628906 C 21.085938 37.058594 21.359375 37.417969 21.449219 37.417969 C 21.746094 37.417969 21.65625 37.101562 21.0625 36.269531 C 20.359375 35.210938 20.585938 34.984375 21.449219 35.886719 C 21.953125 36.402344 22.179688 36.515625 22.363281 36.335938 Z M 22.679688 39.558594 C 22.589844 39.875 22.382812 40.121094 22.179688 40.121094 C 21.882812 40.121094 21.882812 40.03125 22.226562 39.445312 C 22.703125 38.679688 22.886719 38.726562 22.679688 39.558594 Z M 22.089844 40.550781 C 22.089844 40.820312 21.429688 41.339844 21.019531 41.386719 C 20.765625 41.429688 20.835938 41.273438 21.199219 40.890625 C 21.722656 40.324219 22.089844 40.191406 22.089844 40.550781 Z M 24.617188 41.925781 C 25.140625 42.21875 25.207031 43.324219 24.683594 43.820312 C 24.183594 44.339844 23.316406 44.269531 22.90625 43.683594 C 22.453125 43.03125 22.453125 42.625 22.929688 42.105469 C 23.339844 41.65625 23.957031 41.589844 24.617188 41.925781 Z M 22.042969 42.871094 C 22.109375 43.617188 22.042969 43.730469 21.542969 43.863281 C 20.722656 44.066406 20.3125 43.84375 20.128906 43.164062 C 19.925781 42.378906 20.402344 41.882812 21.269531 41.972656 C 21.90625 42.039062 21.972656 42.128906 22.042969 42.871094 Z M 34.382812 43.503906 C 34.382812 44.246094 34.292969 44.855469 34.203125 44.855469 C 33.90625 44.855469 32.039062 43.617188 31.699219 43.210938 C 31.425781 42.894531 31.46875 42.828125 32.039062 42.714844 C 32.378906 42.648438 32.996094 42.488281 33.359375 42.398438 C 33.746094 42.285156 34.113281 42.195312 34.226562 42.175781 C 34.316406 42.152344 34.382812 42.761719 34.382812 43.503906 Z M 27.894531 43.054688 C 27.984375 43.210938 28.167969 43.210938 28.304688 43.097656 C 28.464844 43.007812 28.941406 42.964844 29.375 43.054688 C 30.148438 43.164062 30.105469 43.1875 27.984375 44.113281 C 25.664062 45.148438 20.949219 46.726562 20.765625 46.546875 C 20.699219 46.503906 20.789062 46.007812 20.925781 45.488281 C 21.269531 44.292969 22.089844 43.773438 22.863281 44.292969 C 23.589844 44.8125 24.367188 44.675781 25.84375 43.730469 C 27.304688 42.804688 27.667969 42.691406 27.894531 43.054688 Z M 27.894531 43.054688 "/>
<path style=" stroke:none;fill-rule:nonzero;fill:rgb(0%,0%,0%);fill-opacity:1;" d="M 28.917969 31.78125 C 28.644531 31.964844 28.714844 32.007812 29.214844 32.007812 C 29.558594 32.007812 29.832031 31.894531 29.832031 31.78125 C 29.832031 31.488281 29.375 31.488281 28.917969 31.78125 Z M 28.917969 31.78125 "/>
<path style=" stroke:none;fill-rule:nonzero;fill:rgb(0%,0%,0%);fill-opacity:1;" d="M 19.515625 24.480469 C 19.265625 24.75 19.582031 25.019531 20.152344 25.019531 C 20.449219 25.019531 20.722656 25.132812 20.765625 25.269531 C 20.8125 25.402344 20.972656 25.269531 21.132812 24.929688 C 21.382812 24.34375 21.382812 24.34375 20.515625 24.34375 C 20.039062 24.34375 19.582031 24.410156 19.515625 24.480469 Z M 19.515625 24.480469 "/>
</g>
</svg>
